<svg width="50" height="50" viewBox="0 0 600 600" xmlns="http://www.w3.org/2000/svg" xml:space="preserve" style="fill-rule:evenodd;clip-rule:evenodd;stroke-linejoin:round;stroke-miterlimit:2"><path d="M0 0c0 104.36-56.55 196.34-142.47 250.47-51.17 32.22-112.76 51.03-179.03 51.03-10.82 0-21.52-.5-32.07-1.49C-516.07 284.92-643 156.36-643 0c0-163.07 138.05-295.9 310.53-301.32 3.64-.12 7.3-.18 10.97-.18C-143.94-301.5 0-166.51 0 0" style="fill:#f6c35c;fill-rule:nonzero" transform="matrix(-.5043 0 0 .5043 187.854 204.617)"/><path d="M0-473c-1.62 15.73-1.48 38.73-3.07 67.12C-8.311-311.51-32.49-157.56-203-13c-138 117-436 97-524.5 79-174-35.391-321.5-134.99-321.5-301.5 0-41.43 11.48-79.27 31.31-111.89C-957.8-445.88-821.68-496.77-695-455c368.53 121.51 523.88 9.17 610-79 42-43 92.61-12.94 85 61" style="fill:#f6c35c;fill-rule:nonzero" transform="matrix(-.5043 0 0 .5043 15.386 512.487)"/><path d="M0 25c0 104.36-56.55 196.34-142.47 250.47-37.46 16.93-81.95 26.03-133.03 26.03-10.82 0-21.52-.5-32.07-1.49-2.47-.48-4.95-.98-7.43-1.51-104-22-54.67-58.8-24-61 418-30 215-467 6.53-513.82 3.64-.12 7.3-.18 10.97-.18C-143.94-276.5 0-141.51 0 25" style="fill:#f2a249;fill-rule:nonzero" transform="matrix(-.5043 0 0 .5043 187.854 192.01)"/><path d="M-58.312-18.762c-76.311 0-138.172 44.771-138.173 99.998 0 55.227 61.863 99.998 138.173 99.998S79.859 136.463 79.86 81.236c-.001-55.228-61.861-99.998-138.172-99.998" style="fill:#fadc7b;fill-rule:nonzero" transform="rotate(-144.329 208.48 24.005) scale(.50429)"/><path d="M0-509.88C-5.24-415.51-29.42-261.56-199.93-117c-138 117-436 97-524.5 79-174-35.391-321.5-134.99-321.5-301.5 0-41.43 11.48-79.27 31.31-111.89 29.06 131.4 144.15 313.46 505.69 292.39C-199.79-177.02-57.34-377.3 0-509.88" style="fill:#f2a249;fill-rule:nonzero" transform="matrix(-.5043 0 0 .5043 16.935 564.934)"/><path d="M0-195.858c-.671 6.514-.613 16.037-1.271 27.793-2.17 39.076-12.183 102.823-82.787 162.682C-141.2 43.063-264.594 34.782-301.24 27.329c-72.049-14.655-133.125-55.896-133.125-124.844 0-17.155 4.754-32.824 12.965-46.331 24.799-40.782 81.163-61.854 133.618-44.558 152.599 50.314 216.926 3.796 252.585-32.712C-17.806-238.921 3.151-226.474 0-195.858" style="fill:#f2a249;fill-rule:nonzero" transform="matrix(-.5043 0 0 .5043 146.821 494.823)"/><path d="M0-195.862c-.508 4.984-.601 11.736-.905 19.902a440.29 440.29 0 0 1-.365 7.894C-3.444-128.989-13.454-65.239-84.059-5.381c-57.141 48.443-180.538 40.16-217.177 32.705-42.715-8.682-81.571-26.714-106.135-54.325-16.864-18.962-26.993-42.444-26.993-70.519 0-17.152 4.756-32.823 12.963-46.328 24.801-40.777 81.165-61.855 133.619-44.559 152.598 50.313 216.924 3.799 252.59-32.713 17.389-17.804 38.34-5.356 35.192 25.258" style="fill:#fadc7b;fill-rule:nonzero" transform="matrix(-.5043 0 0 .5043 144.261 466.234)"/><path d="M0-219.022a440.51 440.51 0 0 1-.364 7.895c-2.175 39.076-12.185 102.826-82.789 162.685C-140.295 0-263.692-8.283-300.331-15.738c-42.714-8.682-81.571-26.714-106.135-54.325-1.058-6.049-1.608-12.354-1.608-18.903 0-17.152 4.756-32.823 12.964-46.327 24.801-40.777 81.164-61.855 133.618-44.56 152.598 50.313 216.924 3.8 252.59-32.713 2.911-2.978 5.923-5.119 8.902-6.456" style="fill:#f6c35c;fill-rule:nonzero" transform="matrix(-.5043 0 0 .5043 144.718 487.95)"/><path d="M-67.423-42.149c-53.304 0-96.516 33.578-96.517 75 .001 41.421 43.212 74.999 96.517 75 53.306 0 96.517-33.579 96.518-75 0-41.422-43.212-75-96.518-75" style="fill:#fadc7b;fill-rule:nonzero" transform="rotate(-115.977 319.04 34.208) scale(.50429)"/><path d="M-47-47c-30.928 0-56 21.042-56 47s25.072 47 56 47S9 25.958 9 0s-25.072-47-56-47" style="fill:#5e3a50;fill-rule:nonzero" transform="matrix(0 -.5043 .5043 0 427.393 181.672)"/><path d="M0 164.06c-22.958-3-146.953-9.92-162.704-52a6.298 6.298 0 0 1-.389-2.76c1.966-23.26 132.908-49.19 152.113-98.24C-5.48-3 25.933 96.44 53.094 115c1.277.87 2.545 1.56 3.802 2.06 27.95 11-33.938 50-56.896 47" style="fill:#ec7054;fill-rule:nonzero" transform="matrix(-.5043 0 0 .5043 506.508 199.796)"/><path d="M0 51.76c-22.958-3-146.953-9.92-162.704-52a6.298 6.298 0 0 1-.389-2.76c27.25 12 73.516 29.25 121.169 31.76 46.716 2.46 77.28-7.88 95.018-26.06 1.277.87 2.545 1.56 3.802 2.06 27.95 11-33.938 50-56.896 47" style="fill:#d25344;fill-rule:nonzero" transform="matrix(-.5043 0 0 .5043 506.508 256.428)"/><path d="M-33-33c-18.226 0-33 14.774-33 33s14.774 33 33 33S0 18.226 0 0s-14.774-33-33-33" style="fill:#f9e6b2;fill-rule:nonzero" transform="matrix(0 -.5043 .5043 0 426.384 115.106)"/><path d="M-33-33c-18.226 0-33 14.774-33 33s14.774 33 33 33S0 18.226 0 0s-14.774-33-33-33" style="fill:#f9e6b2;fill-rule:nonzero" transform="rotate(-90 394.296 -66.38) scale(.50429)"/></svg>
